PathFileType	4	(X/Y/Z)	C:\Users\chris\Documents\GitHub\baseballds\vids\pitch5_Sports2D\pitch5_Sports2D_px_person00.trc
DataRate	CameraRate	NumFrames	NumMarkers	Units	OrigDataRate	OrigDataStartFrame	OrigNumFrames
30	30	9	22	m	30	74	149
Frame#	Time	Hip			RHip			RKnee			RAnkle			RBigToe			RSmallToe			RHeel			LHip			LKnee			LAnkle			LBigToe			LSmallToe			LHeel			Neck			Head			Nose			RShoulder			RElbow			RWrist			LShoulder			LElbow			LWrist		
		X1	Y1	Z1	X2	Y2	Z2	X3	Y3	Z3	X4	Y4	Z4	X5	Y5	Z5	X6	Y6	Z6	X7	Y7	Z7	X8	Y8	Z8	X9	Y9	Z9	X10	Y10	Z10	X11	Y11	Z11	X12	Y12	Z12	X13	Y13	Z13	X14	Y14	Z14	X15	Y15	Z15	X16	Y16	Z16	X17	Y17	Z17	X18	Y18	Z18	X19	Y19	Z19	X20	Y20	Z20	X21	Y21	Z21	X22	Y22	Z22
74	2.466666666666667	771.4606363105135	581.5112144287333	0.0	717.9680653020683	594.2695382547167	0.0	706.2773682124827	799.8602077946082	0.0	688.1244991501318	975.0617256514126	0.0	690.3051917758785	1039.2985079302828	0.0	657.1361111193157	1033.7270508592942	0.0	698.5138217575073	998.2022731601735	0.0	824.331231399815	597.2533939345338	0.0	834.0863125929038	798.1941899816434	0.0	857.9623755236718	970.2252538507678	0.0	816.4544289750197	1031.8403724950906	0.0	849.584631249711	1033.279415124816	0.0	869.6414864204692	996.0530244099582	0.0	776.9096575188879	298.5255694661078	0.0	808.5741661425093	174.602625979619	0.0	851.414475170128	247.91717656581082	0.0	684.2803691354917	339.7660247292682	0.0	647.4385729558114	478.47261609247096	0.0	735.2090827076146	451.21492135203005	0.0	866.1079239814514	344.68747821110674	0.0	894.4572369505421	482.14952358924006	0.0	841.2960299257118	486.59441843071363	0.0
75	2.5	771.3533178708251	581.4102486681061	0.0	718.0668805898515	593.8202735924866	0.0	705.9497650576179	799.6822072190615	0.0	688.4586140710514	973.6090158154161	0.0	691.5513132990327	1039.4859646157197	0.0	657.6784133511485	1033.6768545397583	0.0	698.0140914214775	996.2922114330875	0.0	823.8457417311746	597.0226518845168	0.0	834.0851405635309	797.9815750925293	0.0	858.5514955407332	969.0098416925767	0.0	816.6177679863199	1032.7393455388155	0.0	850.7337677212288	1032.9964719759153	0.0	870.4845011558555	993.5347892619494	0.0	776.3585295977435	298.8663345350344	0.0	807.3526958908157	174.72551123040046	0.0	850.7509565062022	247.64049221733882	0.0	683.1643894582613	340.2974063613343	0.0	648.3062020127821	479.8492399172027	0.0	738.0138774017636	448.75683351521184	0.0	865.6120155143805	344.7135141601835	0.0	892.4902699050253	484.5965147241618	0.0	839.2019653332209	483.4499067065101	0.0
76	2.533333333333333	770.7370429484513	580.8453764472954	0.0	717.2720329499466	593.4205030226649	0.0	705.2531415667751	799.9897077102728	0.0	688.7578787805639	973.0132741295021	0.0	692.3618658206494	1039.2181239977272	0.0	657.6940065311661	1033.1090739861863	0.0	697.4389035163002	995.5634906123573	0.0	823.1646766381658	597.1298224268581	0.0	834.0786568647113	796.7257001210958	0.0	859.1907610750305	968.8947830326475	0.0	816.1853441879929	1032.6738716631762	0.0	851.4866399321023	1032.6681919057737	0.0	871.2525108291954	992.8841033580145	0.0	775.0774363996934	299.03949160917966	0.0	805.3682174237271	175.29241665614057	0.0	848.9707671027679	247.70359118093506	0.0	680.8898656685528	340.7533811655486	0.0	647.6050394935528	480.5856772150156	0.0	738.4096507948688	446.98350722577334	0.0	863.7862094304832	344.9607527965366	0.0	891.2885645992015	486.3389107832165	0.0	838.2907389082045	480.4161900584496	0.0
77	2.5666666666666664	769.324718028588	579.987350637683	0.0	715.3162771770461	593.2800673119297	0.0	704.7791165138552	800.096164495321	0.0	688.4266356781807	974.2268930151099	0.0	692.1533584177955	1038.754323102082	0.0	657.3133501048435	1032.7966639607623	0.0	696.9999272785961	998.0965978457206	0.0	821.8492476206993	597.2949131155758	0.0	834.0221856236099	794.7859904520739	0.0	859.5540156012162	970.3424205550941	0.0	815.5900794691812	1032.3911575086813	0.0	850.4126930941175	1033.3581574733187	0.0	871.444772407267	995.6322765306378	0.0	772.7786593199314	298.8993926198742	0.0	802.78602554971	176.12240749126357	0.0	846.1849534725804	247.84856679056054	0.0	677.9177184638079	340.53068616851476	0.0	645.7550130933109	480.4769737861939	0.0	734.7147679025366	446.65882210005935	0.0	861.0866549362634	345.18497126429116	0.0	891.5459661519051	486.28990152012005	0.0	838.6953144490369	477.60478900970895	0.0
78	2.6	767.0366188714917	578.8671542471433	0.0	712.4125462325147	592.6580829647303	0.0	704.1876353714722	800.230751346063	0.0	687.5853277399237	976.2737752223929	0.0	691.9685408297017	1039.442084630807	0.0	657.0684460886903	1033.899951145821	0.0	696.4148662263337	1000.7326896351826	0.0	819.5539365268198	596.5038374003508	0.0	833.7159389599815	793.7759223748129	0.0	859.9264420662107	972.5165513489407	0.0	815.3666930041012	1033.0538795729392	0.0	849.1102115195434	1034.6239774941707	0.0	871.6861773630137	999.1169780621779	0.0	769.7280192763062	298.27762543708656	0.0	799.5046651604619	175.9897922301327	0.0	842.5404129173681	247.5428716650319	0.0	674.4801291741264	339.8622024856731	0.0	643.5325718835724	480.6034871400007	0.0	729.551676682053	447.5172056628395	0.0	858.6795826584607	344.8958762173429	0.0	891.4738656989626	487.0244400550671	0.0	838.6322995930853	475.49851980345977	0.0
79	2.6333333333333333	764.1473710742846	578.1713117325421	0.0	709.3494829909084	592.0648359249611	0.0	703.4935196227611	801.0213421797439	0.0	687.2435863360465	976.760389716467	0.0	693.3105429760169	1040.4219869470967	0.0	657.8083866419078	1035.419381258875	0.0	695.7742435823519	999.8318547337212	0.0	816.5308141120214	595.318219413332	0.0	832.9401590449745	794.390715825713	0.0	860.3178886679523	973.2336794202354	0.0	816.4231140371877	1033.5725174848583	0.0	850.4847083835581	1034.6277234829354	0.0	872.0209075468871	999.6118730495864	0.0	766.0724151103866	297.8952365196161	0.0	795.1722410532684	175.02394664130432	0.0	837.9193574495312	247.513684680267	0.0	670.3435571684726	339.7694399109571	0.0	640.6914297687154	481.64842670875004	0.0	725.0788141121421	448.17645386137826	0.0	856.5121620439791	344.22395269652384	0.0	888.9571482606623	489.4415995685789	0.0	836.3267880692881	474.03985370446907	0.0
80	2.6666666666666665	761.057179666532	578.5128568681916	0.0	706.8010094139245	592.3622626507093	0.0	703.3086679646603	801.8739705251969	0.0	687.8052849476351	975.2655767372842	0.0	695.2234623438479	1039.9004131621969	0.0	659.5227403968692	1035.782990228271	0.0	695.476687701221	997.3911454709175	0.0	813.3997546634552	595.0471292836726	0.0	830.8943484926963	796.4086932281739	0.0	860.0069875712443	971.5000244621074	0.0	819.1261072483857	1032.7436880620214	0.0	854.4208335656839	1033.0841567240564	0.0	871.5432219118227	997.3370219468076	0.0	761.8115033639132	298.3563168422389	0.0	790.3393595030166	174.48500321884475	0.0	832.4932534865442	247.74875647538926	0.0	665.3417547522287	340.5320679403134	0.0	636.6980500680241	483.0363881895902	0.0	719.9562236249693	447.3154440377071	0.0	853.18344880343	343.8047740106579	0.0	884.1977690723055	491.4635118259587	0.0	831.4220688634603	471.9016554750891	0.0
81	2.7	758.0531505256828	579.1431202132541	0.0	704.5962089403963	592.7247662003865	0.0	703.4887687729561	801.6449450310479	0.0	688.4508189948722	974.0987184857188	0.0	695.4523453186227	1038.670920151878	0.0	660.759618640492	1035.3690072095405	0.0	695.2910653656342	997.2867610752008	0.0	810.5343280881568	595.2355151921506	0.0	826.9470653827154	799.6316089239	0.0	858.4184844989334	968.5513363018584	0.0	822.3764434127106	1031.7678006867113	0.0	858.3426317414936	1031.6406991323784	0.0	869.4208047041232	994.289490123282	0.0	757.1219959069178	298.92478635470786	0.0	785.6574030678611	174.61104048827988	0.0	826.7448503473292	247.06489816603326	0.0	660.0378235312305	341.0590677818056	0.0	631.7585030645635	483.4696851251391	0.0	713.1949520148145	444.48612734272376	0.0	848.0252036834502	343.7455874630808	0.0	878.7684887816682	491.9050586585031	0.0	824.6803847118701	468.2472109185593	0.0
82	2.7333333333333334	755.0311052179165	578.6499278664796	0.0	702.2322015121431	591.8307590016746	0.0	702.9407842000543	800.2702691899577	0.0	688.1578577061617	974.5758377998045	0.0	694.0907342961536	1038.671828179714	0.0	660.825530461444	1035.1180513833438	0.0	694.8848859695734	998.8694928529751	0.0	807.6749317581824	594.4212343501724	0.0	821.7328239901528	802.8675873527511	0.0	855.1647912428858	965.1683447124051	0.0	824.2495893243729	1032.1441567273573	0.0	859.8033794049888	1031.1962858658276	0.0	865.0954732567483	989.8925406389351	0.0	752.3450927061887	298.76943973626487	0.0	780.6733217612989	174.3878743476794	0.0	820.9609036131839	245.37481749345335	0.0	655.3454863246141	340.4132867627279	0.0	626.4937044312726	481.82786242925954	0.0	706.0242435778528	440.1775310436557	0.0	842.1951759536423	343.68772146732636	0.0	873.1466243075439	491.59834002032636	0.0	817.5238883220466	464.39694684147213	0.0
